<?xml version="1.0" encoding="UTF-8" standalone="no"?>
<!-- Created with Inkscape (http://www.inkscape.org/) -->

<svg
   xmlns:dc="http://purl.org/dc/elements/1.1/"
   xmlns:cc="http://creativecommons.org/ns#"
   xmlns:rdf="http://www.w3.org/1999/02/22-rdf-syntax-ns#"
   xmlns:svg="http://www.w3.org/2000/svg"
   xmlns="http://www.w3.org/2000/svg"
   xmlns:sodipodi="http://sodipodi.sourceforge.net/DTD/sodipodi-0.dtd"
   xmlns:inkscape="http://www.inkscape.org/namespaces/inkscape"
   width="128"
   height="148"
   id="svg2"
   version="1.1"
   inkscape:version="0.48.4 r9939"
   sodipodi:docname="alarm.svg">
  <defs
     id="defs4" />
  <sodipodi:namedview
     id="base"
     pagecolor="#ffffff"
     bordercolor="#666666"
     borderopacity="1.0"
     inkscape:pageopacity="0.0"
     inkscape:pageshadow="2"
     inkscape:zoom="2.8"
     inkscape:cx="-50.995193"
     inkscape:cy="75.097657"
     inkscape:document-units="px"
     inkscape:current-layer="layer1"
     showgrid="false"
     inkscape:window-width="1920"
     inkscape:window-height="1055"
     inkscape:window-x="0"
     inkscape:window-y="0"
     inkscape:window-maximized="1" />
  <metadata
     id="metadata7">
    <rdf:RDF>
      <cc:Work
         rdf:about="">
        <dc:format>image/svg+xml</dc:format>
        <dc:type
           rdf:resource="http://purl.org/dc/dcmitype/StillImage" />
        <dc:title />
      </cc:Work>
    </rdf:RDF>
  </metadata>
  <g
     inkscape:label="Capa 1"
     inkscape:groupmode="layer"
     id="layer1"
     transform="translate(0,-904.36218)">
    <g
       id="g2987"
       transform="translate(0,-8.9553797)">
      <path
         sodipodi:nodetypes="ssscsssscccccccsssssscssssssssssssscccssssssscccccccssssssscccsscsssssssssscsssssssssssscccccccssscscsscccccccssscsccsssscccccsssssssssssscsssss"
         inkscape:connector-curvature="0"
         id="path5758"
         d="m 18.708212,1039.119 c -2.31452,-2.3583 -4.20821,-4.7425 -4.20821,-5.2981 0,-0.5557 1.56071,-2.5637 3.46825,-4.4622 1.90753,-1.8985 3.48254,-3.8235 3.5,-4.2778 0.0175,-0.4543 -2.01593,-3.4871 -4.51866,-6.7396 -6.01195,-7.8129 -9.2505995,-15.3926 -10.5792095,-24.75923 -1.39315,-9.82157 -0.38545,-24.75335 2.16147,-32.02822 5.8349695,-16.66663 22.8104595,-32.21672 38.9849095,-35.71142 l 7.98324,-1.72487 0,-5.35535 0,-5.35535 8.5,0 8.5,0 0,5.35535 0,5.35535 7.98324,1.72487 c 12.026315,2.59844 24.280918,11.39742 32.343578,23.22315 6.08478,8.9247 8.47454,16.02259 9.25491,27.48827 1.20664,17.72858 -2.07034,30.14205 -11.03132,41.78745 -2.50273,3.2525 -4.55041,6.1478 -4.55041,6.4339 0,0.2862 1.57285,2.2329 3.49522,4.326 1.92237,2.0931 3.49737,4.2745 3.5,4.8474 0.009,1.9118 -8.5404,9.4582 -10.71498,9.4582 -1.24123,0 -3.044172,-1.2641 -4.281692,-3.002 -3.50046,-4.9159 -5.42491,-5.4507 -11.334575,-3.1499 -5.95883,2.32 -16.17918,4.1519 -23.16397,4.1519 -6.98479,0 -17.20514,-1.8319 -23.16397,-4.1519 -5.90967,-2.3008 -7.83412,-1.766 -11.33458,3.1499 -2.97337,4.1757 -5.75883,3.8439 -10.79324,-1.2858 z m 16.13005,-6.7122 c 0.77709,0 3.83137,1.0653 6.78731,2.3674 2.95594,1.302 9.25461,2.941 13.99706,3.6421 10.32887,1.5269 22.13637,0.1243 30.7518,-3.6531 2.95594,-1.296 6.010215,-2.3564 6.787295,-2.3564 0.77709,0 3.35542,1.9988 5.72964,4.4417 l 4.316753,4.4416 3.66766,-3.756 3.66766,-3.7561 -4.02172,-4.2277 c -2.21195,-2.3252 -4.02172,-4.4315 -4.02172,-4.6805 0,-0.2491 2.30344,-3.2676 5.11877,-6.7079 10.2824,-12.5649 14.38693,-27.9442 11.8778,-44.50504 -0.72914,-4.8125 -2.31443,-11 -3.52286,-13.75 -3.62325,-8.24533 -10.87151,-17.04035 -18.993883,-23.04713 -8.703415,-6.43648 -11.481665,-7.71482 -20.620335,-9.48788 l -6.64051,-1.28838 0.5294,-5.83831 0.5294,-5.8383 -6.77778,0 -6.77778,0 0.5294,5.8383 0.5294,5.83831 -6.64051,1.28838 c -9.13867,1.77306 -11.91692,3.0514 -20.62034,9.48788 -8.12237,6.00678 -15.37063,14.8018 -18.99388,23.04713 -1.20843,2.75 -2.7937195,8.9375 -3.5228595,13.75 -2.50913,16.56084 1.5953995,31.94014 11.8778095,44.50504 2.81532,3.4403 5.11876,6.4951 5.11876,6.7886 0,0.2935 -1.80139,2.4083 -4.0031,4.6996 l -4.00309,4.1661 3.64903,3.7369 3.64904,3.737 4.31675,-4.4416 c 2.37422,-2.4429 4.95255,-4.4417 5.72963,-4.4417 z m 18.42207,-4.02 c -6.79596,-1.7163 -17.98245,-8.0697 -22.57358,-12.8208 -2.67383,-2.767 -6.11798,-8.086 -8.48078,-13.0973 -3.4103,-7.233 -4.0487,-9.66887 -4.46984,-17.05517 -0.58536,-10.26627 0.92776,-16.43394 6.49211,-26.46273 11.6242,-20.95061 37.64432,-28.39667 61.70917,-17.65902 6.2311,2.7803 13.660845,10.13701 17.834348,17.65902 5.56435,10.02879 7.07747,16.19646 6.49211,26.46273 -0.42336,7.42513 -1.04714,9.78415 -4.50981,17.05517 -5.22946,10.981 -10.774913,16.6128 -21.677588,22.0153 -7.82148,3.8757 -9.17752,4.2207 -17.77202,4.5216 -5.11745,0.1791 -10.9873,-0.099 -13.04412,-0.6188 z m 28.96737,-5.9777 c 10.686355,-5.2953 16.325895,-11.0211 21.450458,-21.7785 6.76713,-14.20532 6.30714,-24.92559 -1.68965,-39.3777 -8.768803,-15.84732 -27.044887,-25.08434 -43.812988,-22.14377 -14.91239,2.61515 -25.32487,9.78377 -32.164029,22.14377 -7.9775,14.41724 -8.448051,25.13017 -1.72962,39.3777 4.875519,10.3394 10.68401,16.4749 20.072959,21.2031 9.371651,4.7195 13.11089,5.582 22.10085,5.0978 6.25736,-0.337 8.79233,-1.0639 15.77202,-4.5224 z m -3.83929,-19.3468 c -4.73638,-2.8355 -9.68638,-5.96249 -11,-6.94879 -1.31363,-0.98633 -4.18841,-2.80065 -6.38841,-4.03181 l -4,-2.23847 0,-18.46819 0,-18.46818 5.75,-0.2999 5.75,-0.29991 0,15.07008 0,15.07007 6.75,4.31867 c 3.7125,2.37526 9.5625,5.84506 13,7.71065 3.4375,1.86559 6.249995,3.97279 6.249995,4.68259 0,1.94339 -5.103185,9.26149 -6.382885,9.15319 -0.61441,-0.052 -4.99233,-2.4144 -9.7287,-5.25 z m 11.357,-4.48369 c -0.95997,-0.7306 -3.54541,-2.2523 -5.74541,-3.38162 -2.2,-1.12932 -7.0375,-4.01002 -10.75,-6.40155 l -6.75,-4.34824 0,-15.08053 0,-15.08054 -3.75,0.31036 -3.75,0.31037 0,16.46818 0,16.46819 4,2.20654 c 2.2,1.2136 4.59654,2.73996 5.32564,3.39191 0.72911,0.65195 5.43675,3.58923 10.46142,6.52743 l 9.13578,5.34199 1.78399,-2.7021 c 1.69571,-2.5684 1.69762,-2.76789 0.0386,-4.03039 z M 9.2500025,938.41809 c -2.0764,-2.20679 -3.75,-5.00524 -3.75,-6.27043 0,-2.88635 17.7052695,-18.83009 20.5547095,-18.83009 2.22464,0 -2.66248,2.66828 -9.4426,9.47671 l -9.3483895,9.38743 3.8394495,4.07697 3.83946,4.07698 9.72332,-9.6941 9.72333,-9.69411 -7.06518,-4.77868 c -5.10737,-3.45448 0.61562,-4.05378 5.6463,-0.21669 2.10779,1.60769 3.52491,3.5507 3.51795,4.82347 -0.015,2.74263 -18.83715,21.63197 -21.55274,21.62967 -1.06459,-9.1e-4 -3.62311,-1.79512 -5.6856095,-3.98713 z m 92.2012175,-5.96245 c -5.473173,-5.47317 -9.951218,-10.67354 -9.951218,-11.55637 0,-1.86555 9.163408,-7.35848 11.095088,-7.35848 1.83671,0 -3.505583,3.4802 -6.118013,4.87834 -1.08739,0.58195 -1.97708,1.52875 -1.97708,2.10399 0,1.16789 17.419553,18.88374 18.567903,18.88374 0.40153,0 2.30014,-1.61666 4.21913,-3.59258 l 3.48907,-3.59258 -13.87723,-12.62171 c -7.265003,-6.60771 -4.33815,-6.19313 -2.85704,-6.19313 2.92407,0 18.45817,15.89576 18.45817,18.88791 0,2.63673 -7.05978,10.11209 -9.54993,10.11209 -0.85119,0 -6.02568,-4.47805 -11.49885,-9.95122 z"
         style="fill:#000000" />
      <path
         transform="translate(0,904.36218)"
         inkscape:connector-curvature="0"
         id="path5838"
         d="m 22.862361,134.74823 c -1.036114,-1.07349 -2.610231,-2.71029 -3.498037,-3.63732 l -1.614193,-1.68552 3.327471,-3.50517 c 1.830109,-1.92784 3.619863,-3.91611 3.977232,-4.41838 l 0.649762,-0.91322 -0.837733,-1.2197 C 24.40611,118.69808 22.81526,116.61504 21.331641,114.73995 16.708624,108.89707 14.145235,104.69025 11.906894,99.272815 6.886923,87.123036 6.7022902,71.715838 11.408654,57.695822 14.094103,49.69601 22.157331,39.400376 30.786914,32.952447 c 9.044615,-6.758034 11.6848,-7.963539 21.885705,-9.99298 3.081465,-0.613049 5.633254,-1.151802 5.670645,-1.197229 0.03739,-0.04543 -0.137914,-2.298616 -0.389565,-5.007088 -0.251652,-2.708471 -0.46289,-5.293831 -0.469421,-5.745243 l -0.01187,-0.820748 6.565992,0 c 5.08558,0 6.565506,0.07117 6.563842,0.315672 -0.0013,0.17362 -0.230714,2.74726 -0.510074,5.719199 -0.27936,2.97194 -0.454058,5.457394 -0.388219,5.523233 0.06584,0.06584 2.612327,0.615198 5.658864,1.220797 9.507271,1.889883 11.945256,2.89281 18.853894,7.756034 9.864263,6.943787 17.972113,16.323569 21.585773,24.97206 1.77411,4.245949 3.48814,11.775018 4.04174,17.753808 0.87068,9.403088 -0.74193,19.221665 -4.53447,27.608828 -2.23629,4.94554 -4.18237,8.01304 -8.78976,13.85485 -1.66376,2.10952 -3.27547,4.24072 -3.58158,4.73601 l -0.55655,0.90052 0.78796,1.07237 c 0.43337,0.5898 2.21609,2.58151 3.96159,4.42603 l 3.17363,3.35367 -3.49848,3.6173 -3.49848,3.61731 -3.409265,-3.32415 c -3.746325,-3.65281 -5.147164,-4.8195 -6.24717,-5.20297 -0.868403,-0.30272 -1.880742,-0.006 -7.642428,2.24387 -7.14649,2.79 -12.154604,3.79337 -20.020319,4.01103 -8.821801,0.24412 -16.33845,-1.04639 -24.552662,-4.21538 -1.527855,-0.58944 -3.655368,-1.35569 -4.727806,-1.70278 l -1.94989,-0.63107 -1.206837,0.70119 c -0.663761,0.38565 -2.916538,2.38469 -5.006169,4.44232 l -3.799329,3.74113 -1.883845,-1.95181 0,0 z m 46.791594,-10.15825 c 5.64846,-0.36592 8.219977,-1.17251 15.345111,-4.81325 7.078023,-3.61666 11.912113,-7.54752 15.790184,-12.83985 2.91169,-3.97354 7.00519,-12.241951 8.3198,-16.80507 1.45205,-5.040189 1.78049,-15.294116 0.66427,-20.738785 -1.80426,-8.800805 -7.12028,-18.495613 -13.819054,-25.201793 -5.116321,-5.121976 -9.2667,-7.585822 -16.511039,-9.801663 -5.478739,-1.675795 -9.929077,-2.334633 -15.783634,-2.336646 -8.147713,-0.0028 -13.924359,1.319815 -20.960665,4.799136 -4.506381,2.228321 -8.117048,4.828658 -11.439394,8.238456 -3.820844,3.921415 -5.989656,7.031945 -8.785162,12.599756 -2.358273,4.696975 -3.266279,7.162401 -4.176578,11.340273 -0.977644,4.486954 -0.895619,14.48633 0.159392,19.430828 1.407905,6.598404 7.211394,17.503548 12.029778,22.604748 4.521605,4.78701 15.479707,11.14953 22.219204,12.90096 3.145171,0.81736 10.036341,1.07064 16.947787,0.6229 l 0,0 z"
         style="fill:#cfe2e6;fill-opacity:1;stroke:#cfe2e6;stroke-width:0.25253814;stroke-opacity:1" />
      <path
         transform="translate(0,904.36218)"
         inkscape:connector-curvature="0"
         id="path5840"
         d="M 112.36567,34.375627 C 109.74231,32.364644 97.10903,19.541243 95.381905,17.136264 l -0.777225,-1.082266 0.510012,-0.648375 c 0.280507,-0.356606 1.443277,-1.213785 2.583933,-1.90484 1.140657,-0.691056 2.626215,-1.650993 3.301225,-2.133193 l 1.22731,-0.876728 1.05644,1.301243 c 0.58104,0.715683 4.62727,4.556485 8.99162,8.535116 4.36435,3.97863 7.97318,7.347849 8.01961,7.487151 0.092,0.275869 -5.26073,5.731443 -6.464,6.588242 l -0.74133,0.527877 -0.72383,-0.554864 0,0 z"
         style="fill:#cfe2e6;fill-opacity:1;stroke:#cfe2e6;stroke-width:0.25253814;stroke-opacity:1" />
      <path
         transform="translate(0,904.36218)"
         inkscape:connector-curvature="0"
         id="path5842"
         d="M 11.141458,31.714157 7.4199344,27.740559 13.585105,21.670795 c 3.390844,-3.338371 7.294321,-7.032141 8.674393,-8.20838 3.637221,-3.100011 3.329083,-2.903683 3.839785,-2.446494 0.240462,0.215266 2.146566,1.566681 4.235786,3.003144 l 3.798581,2.61175 -9.635334,9.52847 -9.635335,9.528471 -3.721523,-3.973599 z"
         style="fill:#cfe2e6;fill-opacity:1;stroke:#cfe2e6;stroke-width:0.25253814;stroke-opacity:1" />
      <path
         transform="translate(0,904.36218)"
         inkscape:connector-curvature="0"
         id="path5850"
         d="m 80.681125,96.564125 c -3.889087,-2.295842 -9.002984,-5.453337 -11.364216,-7.016654 -3.896795,-2.57998 -5.306946,-3.446282 -9.030076,-5.547475 l -1.201395,-0.678022 0.06497,-16.340121 0.06497,-16.340122 2.146574,-0.168924 c 1.180616,-0.09291 2.800016,-0.233219 3.598668,-0.311801 l 1.452095,-0.142876 0,15.102045 0,15.102045 1.704632,1.099352 c 5.608972,3.617331 11.024653,6.924669 15.152472,9.25356 6.640104,3.74631 7.77241,4.579315 7.479435,5.502397 -0.159508,0.502569 -2.792915,4.708571 -2.928258,4.676941 -0.03784,-0.009 -3.250789,-1.894503 -7.139877,-4.190345 z"
         style="fill:#cfe2e6;fill-opacity:1;stroke:#cfe2e6;stroke-width:0.25253814;stroke-opacity:1" />
    </g>
  </g>
</svg>
