<?xml version="1.0" encoding="UTF-8" standalone="no"?>
<!-- Created with Inkscape (http://www.inkscape.org/) -->

<svg
   xmlns:dc="http://purl.org/dc/elements/1.1/"
   xmlns:cc="http://creativecommons.org/ns#"
   xmlns:rdf="http://www.w3.org/1999/02/22-rdf-syntax-ns#"
   xmlns:svg="http://www.w3.org/2000/svg"
   xmlns="http://www.w3.org/2000/svg"
   xmlns:sodipodi="http://sodipodi.sourceforge.net/DTD/sodipodi-0.dtd"
   xmlns:inkscape="http://www.inkscape.org/namespaces/inkscape"
   width="128"
   height="148"
   id="svg2"
   version="1.1"
   inkscape:version="0.48.4 r9939"
   sodipodi:docname="alarm.svg">
  <defs
     id="defs4" />
  <sodipodi:namedview
     id="base"
     pagecolor="#ffffff"
     bordercolor="#666666"
     borderopacity="1.0"
     inkscape:pageopacity="0.0"
     inkscape:pageshadow="2"
     inkscape:zoom="2.8"
     inkscape:cx="-50.995193"
     inkscape:cy="75.097657"
     inkscape:document-units="px"
     inkscape:current-layer="layer1"
     showgrid="false"
     inkscape:window-width="1920"
     inkscape:window-height="1055"
     inkscape:window-x="0"
     inkscape:window-y="0"
     inkscape:window-maximized="1" />
  <metadata
     id="metadata7">
    <rdf:RDF>
      <cc:Work
         rdf:about="">
        <dc:format>image/svg+xml</dc:format>
        <dc:type
           rdf:resource="http://purl.org/dc/dcmitype/StillImage" />
        <dc:title></dc:title>
      </cc:Work>
    </rdf:RDF>
  </metadata>
  <g
     inkscape:label="Capa 1"
     inkscape:groupmode="layer"
     id="layer1"
     transform="translate(0,-904.36218)">
    <g
       id="g3064"
       transform="matrix(0.98678913,0,0,0.98659204,153.71738,29.048253)">
      <path
         inkscape:connector-curvature="0"
         id="path3056"
         d="m -105.42858,1015.4279 c -24.43142,-5.1849 -43.7988,-24.82451 -48.91736,-49.60502 -7.39509,-35.80194 14.61362,-70.02823 49.6252,-77.17337 47.025182,-9.59687 86.816022,30.19398 77.219152,77.21915 -7.183151,35.19784 -41.81541,57.22284 -77.926992,49.55924 z m 26.292162,-1.9244 c 25.00068,-5.1021 44.436269,-24.55942 49.625199,-49.68062 1.986541,-9.61746 1.986541,-13.8753 0,-23.49276 -5.18893,-25.1212 -24.624519,-44.57848 -49.625199,-49.68061 -9.67351,-1.97416 -13.91081,-1.97416 -23.584322,0 -25.00068,5.10213 -44.43627,24.55941 -49.6252,49.68061 -1.98654,9.61746 -1.98654,13.8753 0,23.49276 5.11856,24.78051 24.48594,44.42012 48.91736,49.60502 9.237412,1.9604 14.969202,1.9782 24.292162,0.076 z m -25.517652,-10.966 c -23.01601,-6.19912 -38.27451,-26.31587 -38.27451,-50.461 0,-29.54156 22.45844,-52 52.000002,-52 29.54156,0 51.999999,22.45844 51.999999,52 0,24.06371 -15.601849,44.49377 -38.541549,50.4688 -7.22544,1.882 -20.18122,1.8782 -27.183942,-0.01 z m 25.183942,-1.9922 c 26.60214,-6.92897 43.651609,-34.42976 37.052459,-59.76561 -4.81931,-18.50258 -18.711519,-32.39479 -37.214099,-37.2141 -34.577052,-9.00618 -68.813902,25.23067 -59.807722,59.80772 7.03681,27.01614 34.23502,43.87489 59.969362,37.17199 z m -2.20845,-30.70933 -16.25,-10.10464 0,-20.32741 0,-20.32742 5.47582,0 5.47582,0 0.27418,16.74813 0.27418,16.74813 13.5,8.22303 c 7.425,4.52267 13.95,8.40873 14.5,8.63568 1.34531,0.55512 -3.8356,10.09519 -5.6083,10.32708 -0.76544,0.10012 -8.7042,-4.36504 -17.6417,-9.92258 z m 19.94851,2.36849 c 0.16582,-0.64954 -5.77351,-4.88239 -13.19851,-9.40634 l -13.5,-8.22536 -0.27418,-16.74813 -0.27418,-16.74813 -3.47582,0 -3.47582,0 0,18.33565 0,18.33565 15.69123,9.61384 c 14.48525,8.87495 15.78786,9.47588 16.94851,7.81882 0.6915,-0.98727 1.39295,-2.32646 1.55877,-2.976 z"
         style="fill:#000000" />
      <path
         transform="translate(0,904.36218)"
         inkscape:connector-curvature="0"
         id="path3060"
         d="m -95.923764,110.08137 c -24.640496,-2.66582 -44.972446,-18.535291 -53.673646,-41.893313 -3.66295,-9.833035 -4.78321,-20.184771 -3.14179,-29.031596 1.92113,-10.354436 4.97171,-18.026436 10.33923,-26.00252 9.83802,-14.6192073 24.05443,-23.705206 42.547634,-27.193071 14.076225,-2.654812 31.596389,1.666162 44.642857,11.0102041 15.427257,11.0491946 24.809072,27.7104649 26.797043,47.5891869 0.734272,7.342328 -1.504968,18.621914 -5.505975,27.734939 -9.194628,20.942436 -28.53895,34.9999 -51.826782,37.66237 -3.090314,0.35331 -7.555196,0.40762 -10.178571,0.1238 l 0,0 z m 14.453121,-11.007002 c 10.160232,-1.50865 19.760161,-6.483979 27.51845,-14.261914 9.451679,-9.475615 14.467911,-21.152507 15.042925,-35.017254 0.8283,-19.971853 -8.693554,-37.697767 -25.394068,-47.2736731 -8.218675,-4.7125057 -16.481093,-6.8334696 -26.620428,-6.8334696 -9.722846,0 -17.215716,1.8122396 -25.357146,6.1329232 -17.41095,9.2400545 -27.49145,27.4486805 -26.65792,48.1527915 0.55661,13.825835 5.54565,25.426067 15.06955,35.038882 1.68876,1.704521 4.33575,4.010139 5.8822,5.123596 5.96632,4.295779 14.48538,7.933097 20.88474,8.917 4.462215,0.686064 15.076618,0.697482 19.631697,0.02111 l 0,1.1e-5 z"
         style="fill:#cfe2e6;fill-opacity:1;stroke:#cfe2e6;stroke-width:0.35714287;stroke-opacity:1" />
      <path
         transform="translate(0,904.36218)"
         inkscape:connector-curvature="0"
         id="path3062"
         d="m -68.303933,69.754118 c -1.718788,-0.906525 -8.596213,-4.989129 -15.283165,-9.072457 l -12.158095,-7.424232 -0.09253,-18.248972 -0.09253,-18.248971 3.338913,0 3.338914,0 0.234984,8.839286 c 0.129242,4.861607 0.237795,12.294642 0.241228,16.517857 0.0034,4.223214 0.124317,7.853378 0.268631,8.067031 0.144313,0.213652 3.637388,2.447187 7.762388,4.963408 9.214389,5.620711 13.998761,8.712457 16.706633,10.796118 1.710658,1.316321 2.030644,1.728339 1.837362,2.365818 -0.34967,1.153271 -1.902202,3.093339 -2.475434,3.093339 -0.276227,0 -1.908512,-0.7417 -3.627301,-1.648225 l 0,0 z"
         style="fill:#cfe2e6;fill-opacity:1;stroke:#cfe2e6;stroke-width:0.35714287;stroke-opacity:1" />
    </g>
  </g>
</svg>
