<?xml version="1.0" encoding="UTF-8" standalone="no"?>
<!-- Created with Inkscape (http://www.inkscape.org/) -->

<svg
   xmlns:dc="http://purl.org/dc/elements/1.1/"
   xmlns:cc="http://creativecommons.org/ns#"
   xmlns:rdf="http://www.w3.org/1999/02/22-rdf-syntax-ns#"
   xmlns:svg="http://www.w3.org/2000/svg"
   xmlns="http://www.w3.org/2000/svg"
   xmlns:sodipodi="http://sodipodi.sourceforge.net/DTD/sodipodi-0.dtd"
   xmlns:inkscape="http://www.inkscape.org/namespaces/inkscape"
   width="128"
   height="148"
   id="svg2"
   version="1.1"
   inkscape:version="0.48.4 r9939"
   sodipodi:docname="timer.svg">
  <defs
     id="defs4" />
  <sodipodi:namedview
     id="base"
     pagecolor="#ffffff"
     bordercolor="#666666"
     borderopacity="1.0"
     inkscape:pageopacity="0.0"
     inkscape:pageshadow="2"
     inkscape:zoom="2.8"
     inkscape:cx="-50.995193"
     inkscape:cy="75.097657"
     inkscape:document-units="px"
     inkscape:current-layer="layer1"
     showgrid="false"
     inkscape:window-width="1920"
     inkscape:window-height="1055"
     inkscape:window-x="0"
     inkscape:window-y="0"
     inkscape:window-maximized="1" />
  <metadata
     id="metadata7">
    <rdf:RDF>
      <cc:Work
         rdf:about="">
        <dc:format>image/svg+xml</dc:format>
        <dc:type
           rdf:resource="http://purl.org/dc/dcmitype/StillImage" />
        <dc:title></dc:title>
      </cc:Work>
    </rdf:RDF>
  </metadata>
  <g
     inkscape:label="Capa 1"
     inkscape:groupmode="layer"
     id="layer1"
     transform="translate(0,-904.36218)">
    <g
       id="g3057"
       transform="matrix(0.98558303,0,0,0.98550002,235.18476,84.210043)">
      <path
         inkscape:connector-curvature="0"
         id="path3049"
         d="m -190.53933,960.76055 c -2.92878,-0.70877 -9.20265,-3.21009 -13.94193,-5.5585 -12.338,-6.11372 -21.46651,-15.41291 -27.57945,-28.09511 -5.73532,-11.89877 -7.02888,-18.65837 -6.43147,-33.60816 0.499,-12.48708 3.09559,-22.52803 6.47261,-25.02948 2.32439,-1.72173 7.40754,-1.56711 10.08277,0.3067 2.69335,1.8865 2.96615,7.42084 0.72922,14.79396 -5.35415,17.64778 -0.86414,34.26276 13.00787,48.13476 7.52578,7.52578 14.2259,11.43273 23.94552,13.96301 15.80602,4.11473 31.9559,-0.89358 45.02532,-13.96301 7.52578,-7.52578 11.43273,-14.2259 13.96301,-23.94552 2.77123,-10.64519 1.40184,-21.10489 -4.25,-32.4625 -3.15692,-6.34395 -11.77599,-16.06697 -17.02371,-19.20413 -6.72933,-4.02289 -8.17472,-5.86043 -8.17472,-10.3926 0,-5.14625 2.27404,-7.48067 7.2872,-7.48067 4.9863,0 17.65192,8.70316 24.07593,16.54375 5.62129,6.86086 11.92657,19.56108 13.53152,27.25547 1.41327,6.77545 1.42492,23.54039 0.0211,30.40156 -0.59632,2.91457 -3.11149,9.52366 -5.58926,14.68686 -6.30627,13.14109 -15.29779,22.13261 -28.43888,28.43888 -5.1632,2.47777 -11.77229,4.99294 -14.68686,5.58926 -7.06475,1.44545 -25.39087,1.23113 -32.02582,-0.37453 z m 30.02582,-1.62547 c 2.91457,-0.59632 9.52366,-3.11149 14.68686,-5.58926 13.14109,-6.30627 22.13261,-15.29779 28.43888,-28.43888 5.22766,-10.89344 6.67348,-16.93536 6.67348,-27.88764 0,-10.50875 -1.4433,-16.88086 -6.00232,-26.5 -5.01912,-10.58991 -11.38586,-18.31597 -20.18655,-24.49645 -8.63943,-6.06724 -11.17847,-6.88608 -13.85142,-4.46708 -3.95847,3.58235 -2.03183,7.40672 6.21501,12.3368 5.24772,3.13716 13.86679,12.86018 17.02371,19.20413 3.70399,7.44333 5.80157,16.09262 5.80157,23.9226 0,14.04269 -5.12556,26.09641 -15.51458,36.48542 -10.38901,10.38902 -22.44272,15.51458 -36.48542,15.51458 -14.04269,0 -26.09641,-5.12556 -36.48542,-15.51458 -13.46432,-13.46431 -18.10352,-29.50222 -13.8805,-47.98542 2.85709,-12.50481 2.85767,-13.13168 0.014,-14.99492 -1.56984,-1.0286 -3.3665,-1.41184 -4.6737,-0.99695 -4.19353,1.33097 -7.9744,14.36557 -7.9744,27.49187 0,10.95228 1.44582,16.9942 6.67348,27.88764 6.08291,12.67564 15.20155,21.97148 27.55955,28.09511 4.73928,2.34841 11.01315,4.84973 13.94193,5.5585 6.66357,1.61259 21.03595,1.80466 28.02582,0.37453 z m -20.3883,-52.84864 c -2.47041,-1.94323 -25.34452,-31.28651 -36.06248,-46.26154 -7.86599,-10.99029 -7.37998,-14.92547 1.19753,-9.69643 7.8571,4.78985 49.50456,37.27049 51.56977,40.21899 0.81593,1.16491 1.4827,4.29987 1.4827,6.97127 0,4.03207 -0.49517,5.34959 -2.92308,7.77749 -2.44214,2.44215 -3.73619,2.92308 -7.86514,2.92308 -3.37064,0 -5.72338,-0.61459 -7.3993,-1.93286 z m 13.26444,-2.99022 c 3.27155,-3.27155 3.81855,-7.35345 1.44038,-10.74876 -1.84091,-2.62827 -37.6858,-30.72673 -51.42579,-40.31219 -3.11709,-2.17458 -2.88025,-1.65708 2.77026,6.05308 13.47124,18.38158 33.6267,44.17002 35.95071,45.99809 3.61145,2.84076 7.80182,2.4724 11.26444,-0.99022 z m -14.15384,-52 c -2.45132,-2.45131 -2.92308,-3.73007 -2.92308,-7.92327 0,-3.92037 0.55909,-5.66464 2.58889,-8.07692 2.34502,-2.7869 3.13735,-3.07673 8.41111,-3.07673 5.27376,0 6.06609,0.28983 8.41111,3.07673 2.0298,2.41228 2.58889,4.15655 2.58889,8.07692 0,4.1932 -0.47176,5.47196 -2.92308,7.92327 -2.47455,2.47455 -3.7139,2.92308 -8.07692,2.92308 -4.36302,0 -5.60237,-0.44853 -8.07692,-2.92308 z m 14.15384,-2 c 3.72649,-3.72648 3.84084,-7.83277 0.33419,-12.0002 -3.66474,-4.35529 -9.15748,-4.35529 -12.82222,0 -3.50665,4.16743 -3.3923,8.27372 0.33419,12.0002 1.99499,1.995 3.92442,2.92308 6.07692,2.92308 2.1525,0 4.08193,-0.92808 6.07692,-2.92308 z"
         style="fill:#000000" />
      <path
         transform="translate(0,904.36218)"
         inkscape:connector-curvature="0"
         id="path3051"
         d="m -179.80817,55.312332 c -5.35647,-0.325875 -8.72173,-0.972853 -12.61559,-2.425382 -18.9166,-7.056464 -29.82352,-16.621178 -37.69135,-33.053046 -2.89925,-6.055057 -4.36159,-10.1040289 -5.40715,-14.9714146 -0.66166,-3.0802428 -0.78476,-4.81723569 -0.80206,-11.3172893 -0.0127,-4.7711641 0.15786,-8.7603961 0.45044,-10.5357141 1.67466,-10.161614 4.66495,-16.947464 7.72079,-17.520743 1.44117,-0.270365 3.89299,0.730274 5.15667,2.104541 0.79106,0.860281 0.83951,1.127851 0.63936,3.530655 -0.11911,1.429908 -0.7832,5.171261 -1.47574,8.314118 -2.37771,10.790336 -2.49445,18.6052217 -0.39832,26.6642503 3.48552,13.4008567 14.2777,26.5704787 27.27089,33.2784747 7.52448,3.884665 14.54571,5.580179 23.10789,5.580179 14.28537,0 26.27633,-5.080507 36.71847,-15.557425 8.87549,-8.905036 13.55249,-18.167929 15.10992,-29.92543586 1.29565,-9.78135014 -0.68277,-21.23667514 -5.24038,-30.34250014 -3.56725,-7.127151 -10.68328,-15.096781 -17.83439,-19.973698 -4.57722,-3.121574 -6.6038,-5.093151 -7.16681,-6.972298 -0.38371,-1.280726 -0.34279,-1.572222 0.40834,-2.908676 0.45914,-0.816918 1.37394,-1.818518 2.0329,-2.225778 2.22834,-1.377189 4.68274,-0.506236 11.35836,4.030549 10.59424,7.199903 17.54219,15.868796 22.97642,28.667494 2.8511,6.714879 3.87295,11.032654 4.36282,18.434864 0.65171,9.8474753 -0.45184,18.1393324 -3.37554,25.363107 -6.12974,15.145154 -13.25276,24.329033 -24.46661,31.545354 -5.30595,3.414482 -15.01849,7.736025 -20.5877,9.160389 -3.97289,1.016093 -13.08895,1.491182 -20.25163,1.055425 l 0,0 z"
         style="fill:#cfe2e6;fill-opacity:1;stroke:#cfe2e6;stroke-width:0.35714287;stroke-opacity:1" />
      <path
         transform="translate(0,904.36218)"
         inkscape:connector-curvature="0"
         id="path3053"
         d="m -175.46179,1.441418 c -1.77587,-0.57119286 -3.09599,-1.44056428571 -4.49177,-2.9580821 -3.86443,-4.2014465 -21.10275,-26.3206859 -31.82107,-40.8309929 -6.76444,-9.1576 -7.47356,-10.18331 -7.0295,-10.16774 0.86085,0.03018 23.23053,16.989911 38.88037,29.477412 13.98215,11.156803 14.79336,12.021782 14.81206,15.7938423 0.0111,2.2482357 -0.78346,3.9735821 -2.7235,5.9136214 -2.33227,2.3322714 -5.45963,3.4689322 -7.62659,2.7719393 z"
         style="fill:#cfe2e6;fill-opacity:1;stroke:#cfe2e6;stroke-width:0.35714287;stroke-opacity:1" />
      <path
         transform="translate(0,904.36218)"
         inkscape:connector-curvature="0"
         id="path3055"
         d="m -175.26548,-52.604762 c -2.74239,-0.578576 -6.1622,-4.014704 -6.96249,-6.995711 -0.33556,-1.249944 -0.30927,-1.895468 0.14017,-3.441458 0.67056,-2.306661 3.26749,-5.360769 5.37071,-6.316195 3.02409,-1.373752 6.45414,-0.511252 8.94901,2.250264 3.52455,3.901257 3.54584,8.071759 0.0596,11.66385 -2.45515,2.529661 -4.81746,3.417213 -7.55695,2.83925 l 0,0 z"
         style="fill:#cfe2e6;fill-opacity:1;stroke:#cfe2e6;stroke-width:0.35714287;stroke-opacity:1" />
    </g>
  </g>
</svg>
